<?xml version="1.0" encoding="utf-8"?>
<!-- Generator: Adobe Illustrator 21.0.0, SVG Export Plug-In . SVG Version: 6.00 Build 0)  -->
<svg version="1.1" id="Layer_1" xmlns="http://www.w3.org/2000/svg" xmlns:xlink="http://www.w3.org/1999/xlink" x="0px" y="0px"
	 viewBox="0 0 100 99" style="enable-background:new 0 0 100 99;" xml:space="preserve">
<path d="M82.5,39.4l-8.4,11.1l5.6-0.2C79.6,62.8,71.5,74.1,59.4,78C46,82.4,31.3,76.7,24.5,64.4l-6.1,3.4
	c6.6,11.8,18.9,18.7,31.9,18.7c3.8,0,7.6-0.6,11.3-1.8c15.1-4.9,25.1-19.1,25.1-34.6l4.9-0.2L82.5,39.4z M20.7,49.8
	C20.8,37.3,28.9,25.9,41,22c13.4-4.4,28.1,1.3,34.9,13.6l6.1-3.4C73.6,17,55.4,9.9,38.9,15.3c-15.1,5-25.2,19.2-25.1,34.7l-5.4,0.2
	l9.2,10.5l8.4-11.1L20.7,49.8z"/>
</svg>
